<svg width="176" height="52" viewBox="0 0 176 52" fill="none" xmlns="http://www.w3.org/2000/svg">
<path d="M2.22372 30V7.45454H10.6783C12.4103 7.45454 13.8634 7.77746 15.0376 8.42329C16.2192 9.06913 17.1109 9.95715 17.7127 11.0874C18.3219 12.2102 18.6264 13.4872 18.6264 14.9183C18.6264 16.3641 18.3219 17.6484 17.7127 18.7713C17.1036 19.8942 16.2045 20.7785 15.0156 21.4244C13.8267 22.0629 12.3626 22.3821 10.6232 22.3821H5.01989V19.0245H10.0728C11.0856 19.0245 11.9149 18.8484 12.5607 18.4961C13.2066 18.1438 13.6836 17.6594 13.9918 17.043C14.3074 16.4265 14.4652 15.7183 14.4652 14.9183C14.4652 14.1184 14.3074 13.4138 13.9918 12.8047C13.6836 12.1955 13.2029 11.7222 12.5497 11.3846C11.9039 11.0397 11.0709 10.8672 10.0508 10.8672H6.30788V30H2.22372ZM21.4566 30V14.7273H24.2233V27.6808H30.9498V30H21.4566ZM35.8866 30H32.9335L38.3103 14.7273H41.7258L47.11 30H44.1569L40.0777 17.8594H39.9584L35.8866 30ZM35.9836 24.0117H44.0376V26.234H35.9836V24.0117ZM46.6048 17.0465V14.7273H58.7901V17.0465H54.0696V30H51.3253V17.0465H46.6048ZM61.2548 30H58.3017L63.6784 14.7273H67.0939L72.4782 30H69.525L65.4458 17.8594H65.3265L61.2548 30ZM61.3517 24.0117H69.4057V26.234H61.3517V24.0117ZM74.4898 30V14.7273H84.2739V17.0465H77.2565V21.1928H83.6027V23.5121H77.2565V30H74.4898ZM100.441 22.3636C100.441 24.0092 100.133 25.4187 99.5168 26.592C98.9053 27.7603 98.07 28.6552 97.0111 29.2766C95.9571 29.8981 94.7615 30.2088 93.4241 30.2088C92.0867 30.2088 90.8886 29.8981 89.8296 29.2766C88.7757 28.6502 87.9404 27.7528 87.324 26.5845C86.7124 25.4112 86.4067 24.0043 86.4067 22.3636C86.4067 20.718 86.7124 19.3111 87.324 18.1428C87.9404 16.9695 88.7757 16.0721 89.8296 15.4506C90.8886 14.8292 92.0867 14.5185 93.4241 14.5185C94.7615 14.5185 95.9571 14.8292 97.0111 15.4506C98.07 16.0721 98.9053 16.9695 99.5168 18.1428C100.133 19.3111 100.441 20.718 100.441 22.3636ZM97.6599 22.3636C97.6599 21.2053 97.4784 20.2283 97.1155 19.4329C96.7575 18.6325 96.2604 18.0284 95.624 17.6207C94.9877 17.2081 94.2544 17.0018 93.4241 17.0018C92.5938 17.0018 91.8605 17.2081 91.2242 17.6207C90.5878 18.0284 90.0882 18.6325 89.7252 19.4329C89.3673 20.2283 89.1883 21.2053 89.1883 22.3636C89.1883 23.522 89.3673 24.5014 89.7252 25.3018C90.0882 26.0973 90.5878 26.7013 91.2242 27.114C91.8605 27.5217 92.5938 27.7255 93.4241 27.7255C94.2544 27.7255 94.9877 27.5217 95.624 27.114C96.2604 26.7013 96.7575 26.0973 97.1155 25.3018C97.4784 24.5014 97.6599 23.522 97.6599 22.3636ZM103.057 30V14.7273H108.784C109.958 14.7273 110.942 14.9311 111.738 15.3388C112.538 15.7464 113.142 16.3182 113.55 17.054C113.962 17.7848 114.169 18.6374 114.169 19.6119C114.169 20.5913 113.96 21.4414 113.542 22.1623C113.13 22.8782 112.521 23.4325 111.715 23.8253C110.91 24.2131 109.92 24.407 108.747 24.407H104.668V22.1101H108.374C109.06 22.1101 109.622 22.0156 110.06 21.8267C110.497 21.6328 110.82 21.3519 111.029 20.984C111.243 20.6112 111.35 20.1538 111.35 19.6119C111.35 19.07 111.243 18.6076 111.029 18.2248C110.815 17.837 110.49 17.5437 110.052 17.3448C109.615 17.141 109.05 17.0391 108.359 17.0391H105.824V30H103.057ZM110.947 23.0795L114.728 30H111.641L107.927 23.0795H110.947ZM116.715 14.7273H120.101L124.635 25.794H124.814L129.348 14.7273H132.734V30H130.079V19.5075H129.937L125.716 29.9553H123.733L119.512 19.4851H119.37V30H116.715V14.7273ZM137.708 30H134.755L140.132 14.7273H143.547L148.931 30H145.978L141.899 17.8594H141.78L137.708 30ZM137.805 24.0117H145.859V26.234H137.805V24.0117Z" fill="white"/>
<path d="M61.0859 33V41H59.8789V33H61.0859ZM69.3008 33V41H68.1914L64.125 35.1328H64.0508V41H62.8438V33H63.9609L68.0313 38.875H68.1055V33H69.3008ZM71.7607 33L73.9873 39.5156H74.0771L76.3037 33H77.6084L74.7295 41H73.335L70.4561 33H71.7607ZM78.7637 41V33H83.7793V34.0391H79.9707V36.4766H83.5176V37.5117H79.9707V39.9609H83.8262V41H78.7637ZM89.7549 35.1016C89.7132 34.7318 89.5413 34.4453 89.2393 34.2422C88.9372 34.0365 88.557 33.9336 88.0986 33.9336C87.7705 33.9336 87.4867 33.9857 87.2471 34.0898C87.0075 34.1914 86.8213 34.332 86.6885 34.5117C86.5583 34.6888 86.4932 34.8906 86.4932 35.1172C86.4932 35.3073 86.5374 35.4714 86.626 35.6094C86.7171 35.7474 86.8356 35.8633 86.9814 35.957C87.1299 36.0482 87.2887 36.125 87.458 36.1875C87.6273 36.2474 87.79 36.2969 87.9463 36.3359L88.7275 36.5391C88.9827 36.6016 89.2445 36.6862 89.5127 36.793C89.7809 36.8997 90.0296 37.0404 90.2588 37.2148C90.488 37.3893 90.6729 37.6055 90.8135 37.8633C90.9567 38.1211 91.0283 38.4297 91.0283 38.7891C91.0283 39.2422 90.9111 39.6445 90.6768 39.9961C90.445 40.3477 90.1077 40.625 89.665 40.8281C89.2249 41.0313 88.6924 41.1328 88.0674 41.1328C87.4684 41.1328 86.9502 41.0378 86.5127 40.8477C86.0752 40.6576 85.7327 40.388 85.4854 40.0391C85.238 39.6875 85.1012 39.2708 85.0752 38.7891H86.2861C86.3096 39.0781 86.4033 39.319 86.5674 39.5117C86.734 39.7018 86.9463 39.8437 87.2041 39.9375C87.4645 40.0286 87.7497 40.0742 88.0596 40.0742C88.4007 40.0742 88.7041 40.0208 88.9697 39.9141C89.238 39.8047 89.4489 39.6536 89.6025 39.4609C89.7562 39.2656 89.833 39.0378 89.833 38.7773C89.833 38.5404 89.7653 38.3464 89.6299 38.1953C89.4971 38.0443 89.3161 37.9193 89.0869 37.8203C88.8604 37.7214 88.6038 37.6341 88.3174 37.5586L87.3721 37.3008C86.7314 37.1263 86.2236 36.8698 85.8486 36.5312C85.4762 36.1927 85.29 35.7448 85.29 35.1875C85.29 34.7266 85.415 34.3242 85.665 33.9805C85.915 33.6367 86.2536 33.3698 86.6807 33.1797C87.1077 32.987 87.5895 32.8906 88.126 32.8906C88.6676 32.8906 89.1455 32.9857 89.5596 33.1758C89.9762 33.3659 90.3044 33.6276 90.5439 33.9609C90.7835 34.2917 90.9085 34.6719 90.9189 35.1016H89.7549ZM92.0762 34.0391V33H98.2676V34.0391H95.7715V41H94.5684V34.0391H92.0762ZM100.843 33V41H99.6357V33H100.843ZM102.601 33H104.065L106.612 39.2187H106.706L109.253 33H110.718V41H109.569V35.2109H109.495L107.136 40.9883H106.183L103.823 35.207H103.749V41H102.601V33ZM112.473 41V33H117.488V34.0391H113.68V36.4766H117.227V37.5117H113.68V39.9609H117.535V41H112.473ZM125.558 33V41H124.448L120.382 35.1328H120.308V41H119.101V33H120.218L124.288 38.875H124.362V33H125.558ZM126.924 34.0391V33H133.115V34.0391H130.619V41H129.416V34.0391H126.924ZM141.089 37C141.089 37.8542 140.933 38.5885 140.62 39.2031C140.308 39.8151 139.879 40.2865 139.335 40.6172C138.793 40.9453 138.177 41.1094 137.487 41.1094C136.795 41.1094 136.176 40.9453 135.632 40.6172C135.09 40.2865 134.663 39.8138 134.351 39.1992C134.038 38.5846 133.882 37.8516 133.882 37C133.882 36.1458 134.038 35.4128 134.351 34.8008C134.663 34.1862 135.09 33.7148 135.632 33.3867C136.176 33.056 136.795 32.8906 137.487 32.8906C138.177 32.8906 138.793 33.056 139.335 33.3867C139.879 33.7148 140.308 34.1862 140.62 34.8008C140.933 35.4128 141.089 36.1458 141.089 37ZM139.894 37C139.894 36.349 139.788 35.8008 139.577 35.3555C139.369 34.9076 139.082 34.569 138.718 34.3398C138.356 34.1081 137.946 33.9922 137.487 33.9922C137.026 33.9922 136.615 34.1081 136.253 34.3398C135.891 34.569 135.604 34.9076 135.394 35.3555C135.185 35.8008 135.081 36.349 135.081 37C135.081 37.651 135.185 38.2005 135.394 38.6484C135.604 39.0937 135.891 39.4323 136.253 39.6641C136.615 39.8932 137.026 40.0078 137.487 40.0078C137.946 40.0078 138.356 39.8932 138.718 39.6641C139.082 39.4323 139.369 39.0937 139.577 38.6484C139.788 38.2005 139.894 37.651 139.894 37ZM146.957 35.1016C146.915 34.7318 146.743 34.4453 146.441 34.2422C146.139 34.0365 145.759 33.9336 145.301 33.9336C144.973 33.9336 144.689 33.9857 144.449 34.0898C144.21 34.1914 144.023 34.332 143.891 34.5117C143.76 34.6888 143.695 34.8906 143.695 35.1172C143.695 35.3073 143.74 35.4714 143.828 35.6094C143.919 35.7474 144.038 35.8633 144.184 35.957C144.332 36.0482 144.491 36.125 144.66 36.1875C144.829 36.2474 144.992 36.2969 145.148 36.3359L145.93 36.5391C146.185 36.6016 146.447 36.6862 146.715 36.793C146.983 36.8997 147.232 37.0404 147.461 37.2148C147.69 37.3893 147.875 37.6055 148.016 37.8633C148.159 38.1211 148.23 38.4297 148.23 38.7891C148.23 39.2422 148.113 39.6445 147.879 39.9961C147.647 40.3477 147.31 40.625 146.867 40.8281C146.427 41.0313 145.895 41.1328 145.27 41.1328C144.671 41.1328 144.152 41.0378 143.715 40.8477C143.277 40.6576 142.935 40.388 142.688 40.0391C142.44 39.6875 142.303 39.2708 142.277 38.7891H143.488C143.512 39.0781 143.605 39.319 143.77 39.5117C143.936 39.7018 144.148 39.8437 144.406 39.9375C144.667 40.0286 144.952 40.0742 145.262 40.0742C145.603 40.0742 145.906 40.0208 146.172 39.9141C146.44 39.8047 146.651 39.6536 146.805 39.4609C146.958 39.2656 147.035 39.0378 147.035 38.7773C147.035 38.5404 146.967 38.3464 146.832 38.1953C146.699 38.0443 146.518 37.9193 146.289 37.8203C146.063 37.7214 145.806 37.6341 145.52 37.5586L144.574 37.3008C143.934 37.1263 143.426 36.8698 143.051 36.5312C142.678 36.1927 142.492 35.7448 142.492 35.1875C142.492 34.7266 142.617 34.3242 142.867 33.9805C143.117 33.6367 143.456 33.3698 143.883 33.1797C144.31 32.987 144.792 32.8906 145.328 32.8906C145.87 32.8906 146.348 32.9857 146.762 33.1758C147.178 33.3659 147.507 33.6276 147.746 33.9609C147.986 34.2917 148.111 34.6719 148.121 35.1016H146.957Z" fill="white"/>
</svg>
