<?xml version="1.0" standalone="no"?>
<!DOCTYPE svg PUBLIC "-//W3C//DTD SVG 20010904//EN"
 "http://www.w3.org/TR/2001/REC-SVG-20010904/DTD/svg10.dtd">
<svg version="1.0" xmlns="http://www.w3.org/2000/svg"
 width="670.000000pt" height="373.000000pt" viewBox="0 0 670.000000 373.000000"
 preserveAspectRatio="xMidYMid meet">

<g transform="translate(0.000000,373.000000) scale(0.100000,-0.100000)"
fill="#000000" stroke="none">
<path d="M3244 3521 c-76 -10 -193 -37 -264 -63 -71 -25 -173 -78 -183 -95 -4
-7 -13 -13 -18 -13 -19 0 -101 -74 -148 -132 -85 -106 -81 -99 -156 -271 -17
-39 -27 -94 -45 -242 -6 -46 -22 -109 -37 -145 -38 -89 -38 -199 0 -280 27
-59 92 -134 126 -145 12 -3 21 -10 21 -15 0 -12 26 -21 113 -39 l79 -16 36
-70 c44 -83 86 -145 136 -199 35 -39 36 -42 36 -122 l0 -83 -44 5 c-45 5 -45
5 -65 -39 -11 -24 -26 -61 -34 -83 -62 -167 -71 -182 -118 -206 -82 -40 -299
-119 -424 -154 -27 -8 -59 -18 -70 -23 -11 -6 -53 -24 -93 -40 -93 -39 -153
-80 -223 -152 -112 -116 -144 -232 -144 -514 l0 -180 1625 0 1625 0 0 180 c0
282 -33 399 -144 515 -104 108 -219 163 -576 277 -151 48 -261 98 -281 129 -8
11 -34 70 -58 130 -70 176 -63 166 -113 160 l-43 -5 0 83 c0 77 2 85 28 113
45 46 105 133 137 196 33 64 67 89 140 101 50 8 95 26 95 37 0 4 8 10 18 13
34 11 105 91 130 146 36 78 36 189 -1 280 -14 36 -30 101 -36 145 -28 208 -25
198 -88 335 -58 129 -135 219 -278 328 -134 102 -460 178 -661 153z m376 -145
c132 -38 267 -115 341 -193 27 -28 119 -160 119 -170 0 -3 7 -19 15 -36 23
-50 65 -197 65 -230 0 -22 -3 -27 -12 -20 -7 6 -34 15 -59 22 l-45 13 -11 65
c-38 219 -227 393 -478 439 -163 30 -420 16 -526 -29 -91 -39 -93 -40 -170
-94 -43 -30 -139 -141 -139 -160 0 -5 -11 -32 -24 -59 -13 -27 -27 -75 -31
-105 l-7 -56 -54 -17 c-30 -9 -58 -15 -63 -12 -13 8 33 180 70 261 19 40 95
153 128 188 69 74 220 161 331 192 103 28 165 34 320 30 116 -4 162 -9 230
-29z m-548 -634 c3 2 48 -13 163 -53 17 -6 57 -19 90 -29 99 -31 277 -91 327
-111 46 -19 48 -19 90 0 65 29 140 58 171 65 l27 6 0 -128 c0 -86 -5 -147 -16
-187 -9 -33 -20 -76 -23 -95 -13 -61 -28 -78 -84 -95 -57 -18 -294 -44 -399
-45 l-68 0 0 -55 0 -55 123 0 c67 0 165 7 217 15 52 8 99 15 103 15 14 0 -34
-70 -85 -126 -27 -28 -54 -51 -61 -51 -7 1 -48 -7 -92 -18 -107 -27 -309 -27
-411 -2 -38 10 -78 19 -87 21 -40 6 -152 145 -202 254 -36 77 -48 109 -55 142
-4 19 -15 62 -24 95 -11 42 -16 102 -16 211 l0 151 43 18 c23 10 62 27 87 39
25 12 52 21 61 22 8 1 24 6 34 11 13 8 28 7 52 -3 18 -8 34 -13 35 -12z m-422
-239 c0 -126 17 -274 34 -302 11 -18 -24 -13 -71 10 -57 28 -119 99 -127 146
-14 91 0 156 46 209 27 31 89 72 111 74 4 0 7 -62 7 -137z m1449 117 c63 -31
109 -93 116 -155 13 -98 -13 -171 -80 -227 -23 -20 -103 -53 -110 -46 -2 2 0
29 6 59 6 29 13 129 16 222 3 92 7 167 9 167 3 0 22 -9 43 -20z m-858 -950
c106 -13 129 -12 357 17 l42 6 0 -72 c0 -65 -2 -71 -21 -71 -19 0 -97 -19
-222 -55 -40 -11 -55 -11 -90 0 -23 7 -88 24 -144 37 l-103 23 0 69 0 68 38
-5 c20 -2 85 -10 143 -17z m-206 -219 c39 -10 90 -24 115 -30 25 -6 80 -21
123 -32 l77 -20 78 20 c42 11 97 26 122 32 25 6 77 20 115 30 96 26 119 25
133 -6 7 -14 12 -34 12 -43 0 -9 11 -37 25 -61 14 -23 25 -50 25 -60 0 -9 -42
-51 -93 -93 -50 -42 -101 -85 -112 -95 -12 -10 -31 -27 -43 -37 l-23 -20 -119
119 -120 120 -119 -119 c-105 -105 -121 -117 -135 -105 -8 8 -21 19 -28 24
-78 62 -224 191 -226 201 -2 7 8 35 22 63 14 28 26 57 26 65 0 8 5 27 12 41
14 31 37 32 133 6z m-226 -310 c9 -10 39 -35 66 -57 28 -21 64 -51 80 -66 17
-15 33 -28 37 -28 3 0 21 -15 40 -33 35 -35 78 -67 89 -67 4 0 57 50 118 112
l111 111 111 -111 c61 -62 116 -112 123 -112 6 0 36 23 65 50 30 28 57 50 60
50 4 0 20 12 36 28 17 15 53 45 80 66 28 22 61 50 74 64 27 27 60 25 135 -8
94 -41 145 -61 226 -86 186 -58 239 -77 325 -119 203 -97 284 -239 285 -497 0
-93 -2 -107 -17 -112 -10 -3 -693 -5 -1518 -3 l-1500 2 -3 100 c-6 187 36 315
134 410 34 33 84 70 110 83 27 13 67 32 89 42 22 11 105 40 185 65 145 47 182
60 275 97 28 11 66 26 85 34 40 16 76 10 99 -15z"/>
<path d="M3290 730 l0 -60 60 0 60 0 0 60 0 60 -60 0 -60 0 0 -60z"/>
<path d="M3290 492 l0 -59 60 1 60 0 0 58 0 58 -60 0 -60 0 0 -58z"/>
</g>
</svg>
